<svg width="64" height="64" viewBox="0 0 64 64" fill="none" xmlns="http://www.w3.org/2000/svg">
  <rect width="64" height="64" rx="14" fill="#000000"/>
  <rect x="1.5" y="1.5" width="61" height="61" rx="12.5" stroke="#DEDBC8" stroke-opacity="0.32"/>
  <path d="M18 18H28.5V38.5C28.5 44.5 25 48 19.5 48C16.5 48 14.4 47.1 12.8 45.7L16.2 38.9C17 39.7 17.8 40.1 18.8 40.1C20.4 40.1 21.2 39 21.2 36.9V18H18Z" fill="#E1E0CC"/>
  <path d="M46.8 46.8C44.5 47.8 42.1 48.2 39.7 48.2C31.7 48.2 26.2 42.3 26.2 33.2C26.2 24.1 31.9 17.7 40.7 17.7C44.1 17.7 47 18.6 49.1 20.2L46.4 27.2C45 26.1 43.3 25.6 41.2 25.6C36.8 25.6 34 28.6 34 32.9C34 37.6 36.8 40.4 40.4 40.4C41.1 40.4 41.8 40.3 42.5 40.1V35.7H38.7V29.5H49.8V45.2C49 45.8 48 46.3 46.8 46.8Z" fill="#DEDBC8"/>
</svg>
